{"title":"Rugby.Union-Jour.De.Rugby-2013.02.17.pdtv.x264","uid":8155232,"size":331679210,"categoryP":"video","categoryS":"tv_shows","magnet":"?xt=urn:btih:d37a36bca0034dc358a3e1c292af939feb8a6a9e&amp;dn=Rugby.Union-Jour.De.Rugby-2013.02.17.pdtv.x264&amp;tr=udp%3A%2F%2Ftracker.openbittorrent.com%3A80&amp;tr=udp%3A%2F%2Fopen.demonii.com%3A1337&amp;tr=udp%3A%2F%2Ftracker.coppersurfer.tk%3A6969&amp;tr=udp%3A%2F%2Fexodus.desync.com%3A6969","seeders":0,"leechers":0,"uploader":"rugbybill","files":3,"time":1361149299,"description":"SPORT: Jour De Rugby\nOn: TV5MONDE \nDate: Sunday 17th February 2013\nTime: 11:05 to 11:45 \n\nRÂ‚sumÂ‚ des matchs et commentaires apros chaque journÂ‚e du Top 14. Review of the French Top 14 League. In French with no subtitles.\n\n\nGeneral\nComplete name: 2013.02.17.Jour.De.Rugby.pdtv.x264.mkv\nFormat : Matroska\nFormat version : Version 4 / Version 2\nFile size: 316 MiB\nDuration : 36mn 37s\nOverall bit rate : 1 206 Kbps\nWriting application: mkvmerge v6.0.0 ('Coming Up For Air') built on Jan 20 2013 09:52:00\nWriting library: libebml v1.3.0 + libmatroska v1.4.0\n\nVideo\nID : 1\nFormat : AVC\nFormat/Info: Advanced Video Codec\nFormat profile : &lt;a class=&quot;__cf_email__&quot; href=&quot;/cdn-cgi/l/email-protection&quot; data-cfemail=&quot;1159787679515d223f20&quot;&gt;[email&amp;#160;protected]&lt;/a&gt;&lt;script cf-hash='f9e31' type=&quot;text/javascript&quot;&gt;\n/* &lt;![CDATA[ */!function(){try{var t=&quot;currentScript&quot;in document?document.currentScript:function(){for(var t=document.getElementsByTagName(&quot;script&quot;),e=t.length;e--;)if(t[e].getAttribute(&quot;cf-hash&quot;))return t[e]}();if(t&amp;&amp;t.previousSibling){var e,r,n,i,c=t.previousSibling,a=c.getAttribute(&quot;data-cfemail&quot;);if(a){for(e=&quot;&quot;,r=parseInt(a.substr(0,2),16),n=2;a.length-n;n+=2)i=parseInt(a.substr(n,2),16)^r,e+=String.fromCharCode(i);e=document.createTextNode(e),c.parentNode.replaceChild(e,c)}}}catch(u){}}();/* ]]&gt; */&lt;/script&gt;\nFormat settings, CABAC : Yes\nFormat settings, ReFrames: 5 frames\nCodec ID : V_MPEG4/ISO/AVC\nDuration : 36mn 37s\nBit rate : 1 054 Kbps\nWidth: 720 pixels\nHeight : 416 pixels\nDisplay aspect ratio : 1.731\nFrame rate mode: Constant\nFrame rate : 25.000 fps\nColor space: YUV\nChroma subsampling : 4:2:0\nBit depth: 8 bits\nScan type: Progressive\nBits/(Pixel*Frame) : 0.141\nStream size: 276 MiB (87%)\nWriting library: x264 core 129 r2245 bc13772\n\nAudio\nID : 2\nFormat : AC-3\nFormat/Info: Audio Coding 3\nMode extension : CM (complete main)\nFormat settings, Endianness: Big\nCodec ID : A_AC3\nDuration : 36mn 37s\nBit rate mode: Constant\nBit rate : 128 Kbps\nChannel(s) : 2 channels\nChannel positions: Front: L R\nSampling rate: 48.0 KHz\nBit depth: 16 bits\nCompression mode : Lossy\nStream size: 33.5 MiB (11%)\nLanguage : French","torrent":{"xt":"urn:btih:d37a36bca0034dc358a3e1c292af939feb8a6a9e","amp;dn":"Rugby.Union-Jour.De.Rugby-2013.02.17.pdtv.x264","amp;tr":["udp%3A%2F%2Ftracker.openbittorrent.com%3A80","udp%3A%2F%2Fopen.demonii.com%3A1337","udp%3A%2F%2Ftracker.coppersurfer.tk%3A6969","udp%3A%2F%2Fexodus.desync.com%3A6969"],"infoHash":"d37a36bca0034dc358a3e1c292af939feb8a6a9e","infoHashBuffer":{"type":"Buffer","data":[211,122,54,188,160,3,77,195,88,163,225,194,146,175,147,159,235,138,106,158]},"announce":[],"urlList":[]}}